<svg width="122" height="149" viewBox="0 0 122 149" fill="none" xmlns="http://www.w3.org/2000/svg">
<g clip-path="url(#clip0_155_1186)">
<rect x="11" width="100" height="100" rx="50" fill="white"/>
<rect x="0" y="16" width="40" height="40" rx="20" fill="#20C4F4"/>
<rect x="0" y="70" width="150" height="150" rx="75" fill="#20C4F4"/>
</g>
<rect x="12" y="1" width="98" height="98" rx="49" stroke="#20C4F4" stroke-width="2"/>
<path d="M18.2604 134.872C18.223 134.564 18.181 134.219 18.1344 133.836C18.0877 133.463 18.041 133.08 17.9944 132.688C17.957 132.305 17.9244 131.951 17.8964 131.624C17.8777 131.307 17.8684 131.055 17.8684 130.868C17.8684 130.523 17.915 130.205 18.0084 129.916C18.111 129.617 18.251 129.361 18.4284 129.146C18.6057 128.922 18.8157 128.749 19.0584 128.628C19.3104 128.497 19.5857 128.432 19.8844 128.432C20.0617 128.432 20.3184 128.455 20.6544 128.502C20.9904 128.549 21.3777 128.609 21.8164 128.684C22.255 128.759 22.7124 128.843 23.1884 128.936C23.6644 129.02 24.131 129.109 24.5884 129.202L24.4204 130.196C23.9724 130.103 23.515 130.014 23.0484 129.93C22.5817 129.837 22.1384 129.757 21.7184 129.692C21.2984 129.617 20.9297 129.561 20.6124 129.524C20.3044 129.477 20.0804 129.454 19.9404 129.454C19.7444 129.454 19.5577 129.501 19.3804 129.594C19.203 129.678 19.0537 129.823 18.9324 130.028C18.8204 130.243 18.7644 130.532 18.7644 130.896C18.7644 131.064 18.7784 131.307 18.8064 131.624C18.8344 131.951 18.867 132.31 18.9044 132.702C18.951 133.094 18.9977 133.481 19.0444 133.864C19.091 134.247 19.133 134.583 19.1704 134.872H18.2604ZM24.4204 130.196L23.5664 129.65C23.7904 129.267 23.9584 128.843 24.0704 128.376C24.1917 127.909 24.2524 127.447 24.2524 126.99C24.2524 126.197 24.1077 125.595 23.8184 125.184C23.529 124.773 23.1184 124.568 22.5864 124.568C22.2224 124.568 21.8957 124.675 21.6064 124.89C21.317 125.095 21.037 125.403 20.7664 125.814C20.4957 126.215 20.2017 126.71 19.8844 127.298L19.0444 126.738C19.2497 126.346 19.469 125.959 19.7024 125.576C19.945 125.184 20.2064 124.834 20.4864 124.526C20.7664 124.209 21.0744 123.957 21.4104 123.77C21.7557 123.574 22.1477 123.476 22.5864 123.476C23.0624 123.476 23.4684 123.579 23.8044 123.784C24.1497 123.98 24.425 124.251 24.6304 124.596C24.8357 124.932 24.985 125.31 25.0784 125.73C25.181 126.141 25.2324 126.561 25.2324 126.99C25.2324 127.447 25.167 127.97 25.0364 128.558C24.915 129.146 24.7097 129.692 24.4204 130.196ZM32.1489 130V128.908H34.4029V130H32.1489ZM34.4029 130V128.908C34.5149 128.908 34.5896 128.959 34.6269 129.062C34.6642 129.155 34.6829 129.286 34.6829 129.454C34.6829 129.613 34.6642 129.743 34.6269 129.846C34.5896 129.949 34.5149 130 34.4029 130ZM32.3589 130C32.3496 128.936 32.1722 127.979 31.8269 127.13C31.4816 126.281 30.9776 125.576 30.3149 125.016C29.6616 124.456 28.8636 124.078 27.9209 123.882L28.1309 122.818C29.1949 123.042 30.1142 123.481 30.8889 124.134C31.6636 124.787 32.2609 125.613 32.6809 126.612C33.1102 127.601 33.3249 128.731 33.3249 130H32.3589ZM26.7449 130V128.908H33.1289V130H26.7449ZM41.5124 130V128.908H43.2904V130H41.5124ZM34.4004 130C34.2884 130 34.2137 129.949 34.1764 129.846C34.1391 129.743 34.1204 129.608 34.1204 129.44C34.1204 129.272 34.1391 129.141 34.1764 129.048C34.2137 128.955 34.2884 128.908 34.4004 128.908V130ZM40.8124 130V126.402C40.8124 125.898 40.6864 125.459 40.4344 125.086C40.1917 124.713 39.8464 124.423 39.3984 124.218C38.9597 124.003 38.4324 123.896 37.8164 123.896C37.3591 123.896 36.9157 123.952 36.4864 124.064C36.0664 124.176 35.6884 124.325 35.3524 124.512L34.9464 123.63C35.3851 123.35 35.8471 123.145 36.3324 123.014C36.8271 122.874 37.3264 122.804 37.8304 122.804C38.4184 122.804 38.9504 122.893 39.4264 123.07C39.9117 123.238 40.3271 123.485 40.6724 123.812C41.0271 124.129 41.2977 124.507 41.4844 124.946C41.6804 125.385 41.7784 125.87 41.7784 126.402V130H40.8124ZM34.4004 130V128.908H42.2824L42.1144 130H34.4004ZM43.2904 130V128.908C43.4024 128.908 43.4771 128.959 43.5144 129.062C43.5517 129.155 43.5704 129.286 43.5704 129.454C43.5704 129.613 43.5517 129.743 43.5144 129.846C43.4771 129.949 43.4024 130 43.2904 130ZM37.8304 121.152C37.6344 121.152 37.4664 121.082 37.3264 120.942C37.1864 120.802 37.1164 120.634 37.1164 120.438C37.1164 120.233 37.1864 120.065 37.3264 119.934C37.4664 119.794 37.6344 119.724 37.8304 119.724C38.0357 119.724 38.2037 119.794 38.3344 119.934C38.4744 120.065 38.5444 120.233 38.5444 120.438C38.5444 120.634 38.4744 120.802 38.3344 120.942C38.2037 121.082 38.0357 121.152 37.8304 121.152ZM43.2871 130V128.908H43.8051C44.2438 128.908 44.5798 128.871 44.8131 128.796C45.0558 128.712 45.2238 128.572 45.3171 128.376C45.4104 128.171 45.4571 127.891 45.4571 127.536V123.476H46.4371V127.536C46.4371 128.096 46.3438 128.558 46.1571 128.922C45.9704 129.286 45.6858 129.557 45.3031 129.734C44.9204 129.911 44.4211 130 43.8051 130H43.2871ZM47.8931 130C47.3238 130 46.8618 129.911 46.5071 129.734C46.1524 129.557 45.8864 129.286 45.7091 128.922C45.5411 128.558 45.4571 128.096 45.4571 127.536H46.4371C46.4371 127.891 46.4744 128.171 46.5491 128.376C46.6331 128.572 46.7778 128.712 46.9831 128.796C47.1978 128.871 47.5011 128.908 47.8931 128.908H48.3271V130H47.8931ZM48.3271 130V128.908C48.4391 128.908 48.5138 128.959 48.5511 129.062C48.5884 129.155 48.6071 129.286 48.6071 129.454C48.6071 129.613 48.5884 129.743 48.5511 129.846C48.5138 129.949 48.4391 130 48.3271 130ZM43.2871 130C43.1751 130 43.1004 129.949 43.0631 129.846C43.0258 129.743 43.0071 129.608 43.0071 129.44C43.0071 129.272 43.0258 129.141 43.0631 129.048C43.1004 128.955 43.1751 128.908 43.2871 128.908V130ZM46.7451 121.922C46.5584 121.922 46.3998 121.861 46.2691 121.74C46.1384 121.609 46.0731 121.451 46.0731 121.264C46.0731 121.068 46.1384 120.909 46.2691 120.788C46.3998 120.657 46.5584 120.592 46.7451 120.592C46.9318 120.592 47.0858 120.657 47.2071 120.788C47.3378 120.909 47.4031 121.068 47.4031 121.264C47.4031 121.451 47.3378 121.609 47.2071 121.74C47.0858 121.861 46.9318 121.922 46.7451 121.922ZM45.1491 121.922C44.9718 121.922 44.8178 121.861 44.6871 121.74C44.5564 121.609 44.4911 121.451 44.4911 121.264C44.4911 121.068 44.5564 120.909 44.6871 120.788C44.8178 120.657 44.9764 120.592 45.1631 120.592C45.3498 120.592 45.5038 120.657 45.6251 120.788C45.7558 120.909 45.8211 121.068 45.8211 121.264C45.8211 121.451 45.7558 121.609 45.6251 121.74C45.5038 121.861 45.3451 121.922 45.1491 121.922ZM60.204 130C59.6347 130 59.168 129.911 58.804 129.734C58.4494 129.557 58.188 129.286 58.02 128.922C57.852 128.558 57.768 128.096 57.768 127.536H58.734C58.734 127.891 58.7714 128.171 58.846 128.376C58.93 128.572 59.0794 128.712 59.294 128.796C59.5087 128.871 59.812 128.908 60.204 128.908H60.638V130H60.204ZM48.332 130C48.22 130 48.1454 129.949 48.108 129.846C48.0707 129.743 48.052 129.608 48.052 129.44C48.052 129.272 48.0707 129.141 48.108 129.048C48.1454 128.955 48.22 128.908 48.332 128.908V130ZM56.41 130C56.102 130 55.808 129.958 55.528 129.874C55.2574 129.781 55.01 129.641 54.786 129.454C54.5714 129.258 54.3894 129.011 54.24 128.712L54.898 128.236C55.0287 128.469 55.2154 128.647 55.458 128.768C55.7007 128.889 55.9807 128.95 56.298 128.95C56.7367 128.95 57.0914 128.838 57.362 128.614C57.6327 128.39 57.768 128.031 57.768 127.536V123.476H58.734V127.536C58.734 128.096 58.6314 128.558 58.426 128.922C58.2207 129.286 57.9454 129.557 57.6 129.734C57.2547 129.911 56.858 130 56.41 130ZM48.332 130V128.908H48.85C49.2887 128.908 49.6247 128.871 49.858 128.796C50.0914 128.712 50.2547 128.572 50.348 128.376C50.4414 128.171 50.488 127.891 50.488 127.536V124.918H51.468V127.536C51.468 128.096 51.3747 128.558 51.188 128.922C51.0107 129.286 50.726 129.557 50.334 129.734C49.9514 129.911 49.4567 130 48.85 130H48.332ZM52.784 130C52.476 130 52.182 129.958 51.902 129.874C51.6314 129.781 51.384 129.641 51.16 129.454C50.936 129.258 50.754 129.011 50.614 128.712L51.258 128.236C51.398 128.469 51.5847 128.647 51.818 128.768C52.0607 128.889 52.3454 128.95 52.672 128.95C53.1107 128.95 53.4607 128.838 53.722 128.614C53.9927 128.39 54.128 128.031 54.128 127.536V124.218H55.094V127.536C55.094 128.096 54.9914 128.558 54.786 128.922C54.59 129.286 54.3147 129.557 53.96 129.734C53.6147 129.911 53.2227 130 52.784 130ZM60.638 130V128.908C60.75 128.908 60.8247 128.959 60.862 129.062C60.8994 129.155 60.918 129.286 60.918 129.454C60.918 129.613 60.8994 129.743 60.862 129.846C60.8247 129.949 60.75 130 60.638 130ZM70.8007 130C70.2594 130 69.8161 129.911 69.4707 129.734C69.1254 129.557 68.8687 129.286 68.7007 128.922C68.5327 128.558 68.4487 128.096 68.4487 127.536V127.032H69.3307V127.536C69.3307 127.891 69.3681 128.171 69.4427 128.376C69.5267 128.572 69.6761 128.712 69.8907 128.796C70.1054 128.871 70.4087 128.908 70.8007 128.908H71.2347V130H70.8007ZM60.6367 130C60.5247 130 60.4501 129.949 60.4127 129.846C60.3754 129.743 60.3567 129.608 60.3567 129.44C60.3567 129.272 60.3754 129.141 60.4127 129.048C60.4501 128.955 60.5247 128.908 60.6367 128.908V130ZM60.6367 130V128.908C61.0754 128.908 61.4394 128.815 61.7287 128.628C62.0181 128.441 62.2701 128.185 62.4847 127.858C62.7087 127.531 62.9281 127.163 63.1427 126.752C63.3481 126.36 63.5674 125.973 63.8007 125.59C64.0341 125.198 64.2907 124.843 64.5707 124.526C64.8507 124.209 65.1634 123.957 65.5087 123.77C65.8541 123.574 66.2461 123.476 66.6847 123.476C67.1607 123.476 67.5667 123.579 67.9027 123.784C68.2481 123.989 68.5234 124.265 68.7287 124.61C68.9341 124.946 69.0834 125.324 69.1767 125.744C69.2794 126.155 69.3307 126.57 69.3307 126.99C69.3307 127.457 69.2654 127.984 69.1347 128.572C69.0134 129.151 68.8081 129.692 68.5187 130.196L67.6787 129.664C67.8934 129.281 68.0567 128.857 68.1687 128.39C68.2901 127.923 68.3507 127.457 68.3507 126.99C68.3507 126.206 68.2061 125.609 67.9167 125.198C67.6274 124.778 67.2167 124.568 66.6847 124.568C66.3207 124.568 65.9941 124.675 65.7047 124.89C65.4247 125.105 65.1447 125.413 64.8647 125.814C64.5941 126.215 64.3001 126.71 63.9827 127.298C63.6747 127.858 63.3667 128.343 63.0587 128.754C62.7507 129.155 62.4054 129.463 62.0227 129.678C61.6401 129.893 61.1781 130 60.6367 130ZM68.4627 129.104L68.5187 130.196C67.7067 130.243 66.9974 130.233 66.3907 130.168C65.7934 130.112 65.2707 130.009 64.8227 129.86C64.3747 129.711 63.9781 129.519 63.6327 129.286C63.2874 129.043 62.9654 128.763 62.6667 128.446L63.3667 127.69C63.7401 128.073 64.1507 128.381 64.5987 128.614C65.0561 128.838 65.5974 128.987 66.2227 129.062C66.8481 129.137 67.5947 129.151 68.4627 129.104ZM71.2347 130V128.908C71.3467 128.908 71.4214 128.959 71.4587 129.062C71.4961 129.155 71.5147 129.286 71.5147 129.454C71.5147 129.613 71.4961 129.743 71.4587 129.846C71.4214 129.949 71.3467 130 71.2347 130ZM71.2324 130V128.908H72.9544V118.632H73.9344V130H71.2324ZM71.2324 130C71.1204 130 71.0458 129.949 71.0084 129.846C70.9711 129.743 70.9524 129.608 70.9524 129.44C70.9524 129.272 70.9711 129.141 71.0084 129.048C71.0458 128.955 71.1204 128.908 71.2324 128.908V130ZM76.0041 130V118.632H76.9701V130H76.0041ZM90.9487 130C90.4074 130 89.964 129.911 89.6187 129.734C89.2734 129.557 89.0167 129.286 88.8487 128.922C88.6807 128.558 88.5967 128.096 88.5967 127.536V126.99H89.4787V127.536C89.4787 127.891 89.516 128.171 89.5907 128.376C89.6747 128.572 89.824 128.712 90.0387 128.796C90.2534 128.871 90.5567 128.908 90.9487 128.908H91.3827V130H90.9487ZM82.5067 134.872C82.4694 134.564 82.4274 134.219 82.3807 133.836C82.334 133.463 82.2874 133.08 82.2407 132.688C82.2034 132.305 82.1707 131.951 82.1427 131.624C82.124 131.307 82.1147 131.055 82.1147 130.868C82.1147 130.523 82.1614 130.205 82.2547 129.916C82.3574 129.617 82.4974 129.361 82.6747 129.146C82.852 128.922 83.062 128.749 83.3047 128.628C83.5567 128.497 83.832 128.432 84.1307 128.432C84.308 128.432 84.5647 128.455 84.9007 128.502C85.246 128.549 85.6334 128.609 86.0627 128.684C86.5014 128.759 86.9587 128.843 87.4347 128.936C87.9107 129.02 88.3774 129.109 88.8347 129.202L88.6667 130.196C88.2187 130.103 87.7614 130.014 87.2947 129.93C86.828 129.837 86.3847 129.757 85.9647 129.692C85.5447 129.617 85.176 129.561 84.8587 129.524C84.5507 129.477 84.3267 129.454 84.1867 129.454C83.9907 129.454 83.804 129.501 83.6267 129.594C83.4494 129.678 83.3 129.823 83.1787 130.028C83.0667 130.243 83.0107 130.532 83.0107 130.896C83.0107 131.064 83.0247 131.307 83.0527 131.624C83.0807 131.951 83.1134 132.31 83.1507 132.702C83.1974 133.094 83.244 133.481 83.2907 133.864C83.3374 134.247 83.3794 134.583 83.4167 134.872H82.5067ZM88.6667 130.196L87.8267 129.65C88.0414 129.267 88.2094 128.843 88.3307 128.376C88.452 127.909 88.5127 127.447 88.5127 126.99C88.5127 126.197 88.3634 125.595 88.0647 125.184C87.7754 124.773 87.3647 124.568 86.8327 124.568C86.478 124.568 86.156 124.675 85.8667 124.89C85.5774 125.095 85.2927 125.403 85.0127 125.814C84.742 126.215 84.448 126.71 84.1307 127.298L83.2907 126.738C83.496 126.346 83.7154 125.959 83.9487 125.576C84.1914 125.184 84.4527 124.834 84.7327 124.526C85.0127 124.209 85.3207 123.957 85.6567 123.77C86.002 123.574 86.394 123.476 86.8327 123.476C87.3087 123.476 87.7147 123.579 88.0507 123.784C88.396 123.989 88.6714 124.26 88.8767 124.596C89.082 124.932 89.2314 125.31 89.3247 125.73C89.4274 126.15 89.4787 126.57 89.4787 126.99C89.4787 127.447 89.4134 127.97 89.2827 128.558C89.1614 129.146 88.956 129.692 88.6667 130.196ZM91.3827 130V128.908C91.4947 128.908 91.5694 128.959 91.6067 129.062C91.644 129.155 91.6627 129.286 91.6627 129.454C91.6627 129.613 91.644 129.743 91.6067 129.846C91.5694 129.949 91.4947 130 91.3827 130ZM99.4628 130C99.1548 130 98.8608 129.958 98.5808 129.874C98.3101 129.781 98.0628 129.641 97.8388 129.454C97.6241 129.258 97.4421 129.011 97.2928 128.712L97.9508 128.236C98.0814 128.469 98.2681 128.647 98.5108 128.768C98.7534 128.889 99.0334 128.95 99.3508 128.95C99.7894 128.95 100.144 128.838 100.415 128.614C100.685 128.39 100.821 128.031 100.821 127.536V123.476H101.787V127.536C101.787 128.096 101.684 128.558 101.479 128.922C101.273 129.286 100.998 129.557 100.653 129.734C100.307 129.911 99.9108 130 99.4628 130ZM91.3848 130V128.908H91.9028C92.3414 128.908 92.6774 128.871 92.9108 128.796C93.1441 128.712 93.3074 128.572 93.4008 128.376C93.4941 128.171 93.5408 127.891 93.5408 127.536V124.918H94.5208V127.536C94.5208 128.096 94.4274 128.558 94.2408 128.922C94.0634 129.286 93.7788 129.557 93.3868 129.734C93.0041 129.911 92.5094 130 91.9028 130H91.3848ZM95.8368 130C95.5288 130 95.2348 129.958 94.9548 129.874C94.6841 129.781 94.4368 129.641 94.2128 129.454C93.9888 129.258 93.8068 129.011 93.6668 128.712L94.3108 128.236C94.4508 128.469 94.6374 128.647 94.8708 128.768C95.1134 128.889 95.3981 128.95 95.7248 128.95C96.1634 128.95 96.5134 128.838 96.7748 128.614C97.0454 128.39 97.1808 128.031 97.1808 127.536V124.218H98.1468V127.536C98.1468 128.096 98.0441 128.558 97.8388 128.922C97.6428 129.286 97.3674 129.557 97.0128 129.734C96.6674 129.911 96.2754 130 95.8368 130ZM91.3848 130C91.2728 130 91.1981 129.949 91.1608 129.846C91.1234 129.743 91.1048 129.608 91.1048 129.44C91.1048 129.272 91.1234 129.141 91.1608 129.048C91.1981 128.955 91.2728 128.908 91.3848 128.908V130ZM103.854 130V118.632H104.82V130H103.854Z" fill="black"/>
<defs>
<clipPath id="clip0_155_1186">
<rect x="11" width="100" height="100" rx="50" fill="white"/>
</clipPath>
</defs>
</svg>
